<?xml version="1.0" encoding="utf-8"?>
<!-- Generator: Adobe Illustrator 16.0.0, SVG Export Plug-In . SVG Version: 6.00 Build 0)  -->
<!DOCTYPE svg PUBLIC "-//W3C//DTD SVG 1.1//EN" "http://www.w3.org/Graphics/SVG/1.1/DTD/svg11.dtd">
<svg version="1.1" id="Layer_1" xmlns="http://www.w3.org/2000/svg" xmlns:xlink="http://www.w3.org/1999/xlink" x="0px" y="0px"
	 width="50.778px" height="69.225px" viewBox="0 0 50.778 69.225" enable-background="new 0 0 50.778 69.225" xml:space="preserve">
<g>
	<path fill="#FFFFFF" d="M10.731,62.961L9.29,61.303l-1.978,1.891l1.346,1.4H6.383c-0.501,0-0.89-0.143-1.168-0.43
		c-0.278-0.287-0.417-0.688-0.417-1.203v-3.723c0-0.516,0.139-0.916,0.417-1.203c0.278-0.287,0.667-0.432,1.168-0.432h2.764
		c0.5,0,0.889,0.145,1.167,0.432c0.278,0.287,0.418,0.688,0.418,1.203V62.961z M13.746,64.662c0.103-0.373,0.155-0.789,0.155-1.248
		v-4.631c0-1.383-0.372-2.457-1.114-3.225c-0.743-0.766-1.786-1.146-3.128-1.146H5.87c-1.342,0-2.385,0.381-3.127,1.146
		C2,56.326,1.628,57.4,1.628,58.783v4.631c0,1.385,0.371,2.459,1.114,3.225c0.742,0.766,1.785,1.148,3.127,1.148h3.789
		c0.342,0,0.642-0.023,0.9-0.066c0.258-0.047,0.494-0.121,0.709-0.229l1.608,1.732l1.954-1.904l-1.561-1.621
		C13.484,65.381,13.643,65.035,13.746,64.662"/>
</g>
<rect x="16.093" y="54.633" fill="#FFFFFF" width="3.146" height="12.934"/>
<g>
	<path fill="#FFFFFF" d="M22.182,55.615c-0.643,0.654-0.965,1.729-0.965,3.217v4.533c0,1.498,0.322,2.574,0.965,3.225
		c0.643,0.65,1.704,0.977,3.181,0.977h6.196v-3.145h-6.053c-0.461,0-0.762-0.068-0.905-0.209c-0.143-0.139-0.215-0.43-0.215-0.873
		v-0.723h7.173v-3.145h-7.173v-0.615c0-0.434,0.074-0.723,0.221-0.865s0.446-0.215,0.899-0.215h6.053v-3.146h-6.196
		C23.885,54.631,22.824,54.959,22.182,55.615"/>
	<path fill="#FFFFFF" d="M43.541,63.641c0,0.344-0.064,0.613-0.196,0.811c-0.13,0.197-0.307,0.295-0.53,0.295
		c-0.262,0-0.466-0.094-0.615-0.281c-0.149-0.189-0.264-0.496-0.346-0.922l-1.062-5.664c-0.201-1.096-0.611-1.924-1.229-2.48
		c-0.619-0.557-1.436-0.834-2.449-0.834c-1.11,0-2.002,0.332-2.676,1c-0.676,0.668-1.013,1.551-1.013,2.646v9.508h2.951v-8.855
		c0-0.344,0.067-0.615,0.2-0.811c0.135-0.197,0.313-0.295,0.537-0.295c0.254,0,0.455,0.096,0.604,0.287
		c0.148,0.193,0.27,0.512,0.357,0.953l1.052,5.625c0.208,1.098,0.622,1.926,1.241,2.482c0.617,0.557,1.434,0.834,2.447,0.834
		c1.11,0,2-0.332,2.672-1c0.67-0.668,1.006-1.551,1.006-2.648v-9.506h-2.951V63.641z"/>
	<path fill="#FFFFFF" d="M49.523,55.803c-0.056,0.037-0.142,0.057-0.261,0.057h-0.198v-0.482h0.178c0.125,0,0.216,0.021,0.275,0.062
		c0.059,0.039,0.088,0.102,0.088,0.186C49.605,55.705,49.579,55.764,49.523,55.803 M49.926,55.881
		c0.064-0.078,0.096-0.172,0.096-0.281c0-0.158-0.059-0.277-0.178-0.357c-0.117-0.08-0.296-0.119-0.531-0.119h-0.65v1.658h0.402
		v-0.68h0.198l0.317,0.68h0.451l-0.373-0.742C49.773,56.012,49.861,55.959,49.926,55.881"/>
	<path fill="#FFFFFF" d="M50.435,56.469c-0.063,0.148-0.155,0.279-0.271,0.391c-0.125,0.119-0.264,0.209-0.416,0.271
		c-0.151,0.062-0.308,0.094-0.469,0.094c-0.165,0-0.322-0.031-0.477-0.096c-0.151-0.066-0.287-0.158-0.407-0.281
		c-0.116-0.115-0.205-0.248-0.267-0.396s-0.092-0.307-0.092-0.473c0-0.164,0.032-0.324,0.098-0.477
		c0.066-0.154,0.16-0.293,0.281-0.414c0.116-0.117,0.248-0.205,0.394-0.264c0.146-0.061,0.304-0.09,0.474-0.09
		c0.174,0,0.336,0.031,0.485,0.096c0.151,0.062,0.286,0.154,0.407,0.279c0.117,0.119,0.205,0.252,0.266,0.402
		s0.089,0.312,0.089,0.492C50.53,56.164,50.498,56.318,50.435,56.469 M50.67,55.412c-0.072-0.18-0.179-0.34-0.316-0.479
		c-0.143-0.145-0.307-0.258-0.49-0.334c-0.183-0.078-0.377-0.117-0.584-0.117c-0.268,0-0.513,0.064-0.736,0.191
		c-0.223,0.127-0.401,0.303-0.537,0.531c-0.071,0.123-0.127,0.25-0.162,0.379c-0.036,0.129-0.055,0.262-0.055,0.398
		c0,0.195,0.037,0.383,0.109,0.562c0.073,0.18,0.18,0.338,0.318,0.479c0.145,0.146,0.308,0.258,0.49,0.336
		c0.182,0.078,0.373,0.117,0.572,0.117c0.196,0,0.385-0.037,0.568-0.113c0.183-0.074,0.347-0.182,0.49-0.322
		c0.144-0.139,0.252-0.299,0.328-0.48c0.074-0.182,0.112-0.373,0.112-0.578C50.778,55.781,50.741,55.592,50.67,55.412"/>
	<path fill="#FFFFFF" d="M9.673,20.339c0-3.459,0.9-6.146,2.699-8.061c1.799-1.914,4.325-2.871,7.577-2.871h9.18
		c3.252,0,5.777,0.957,7.577,2.871c1.8,1.915,2.699,4.602,2.699,8.061v11.577c0,1.147-0.125,2.187-0.375,3.118
		c-0.25,0.932-0.636,1.797-1.155,2.596l3.782,4.053l-4.733,4.76l-3.897-4.33c-0.521,0.266-1.093,0.455-1.718,0.568
		s-1.353,0.168-2.18,0.168h-9.18c-3.252,0-5.778-0.955-7.577-2.871c-1.799-1.914-2.699-4.6-2.699-8.061V20.339z M8.576,51.281
		h31.386c4.736,0,8.576-3.84,8.576-8.574V8.576C48.538,3.84,44.698,0,39.962,0H8.576C3.84,0,0,3.84,0,8.576v34.131
		C0,47.441,3.84,51.281,8.576,51.281"/>
	<path fill="#FFFFFF" d="M21.191,34.865h5.513l-3.262-3.502l4.792-4.729l3.492,4.146v-9.306c0-1.29-0.336-2.292-1.01-3.009
		c-0.674-0.717-1.617-1.075-2.828-1.075h-6.698c-1.212,0-2.155,0.358-2.829,1.075c-0.674,0.717-1.01,1.719-1.01,3.009v9.306
		c0,1.289,0.336,2.293,1.01,3.008C19.036,34.506,19.979,34.865,21.191,34.865"/>
</g>
</svg>
